<svg width="60" height="60" viewBox="0 0 60 60" fill="none" xmlns="http://www.w3.org/2000/svg">
<path d="M30.5039 37.5855L30.042 37.5503C29.0779 37.4775 28.3005 37.2428 27.1357 36.481C26.8241 36.277 26.7367 35.8587 26.9404 35.5474C27.1443 35.2363 27.5617 35.1488 27.873 35.3521C28.4504 35.7298 28.9048 35.9663 29.4219 36.0952C29.9279 36.2214 30.4625 36.2365 31.1738 36.2319C33.0287 36.2196 34.1 34.8256 34.3125 33.562C34.3551 33.3082 34.4099 32.7467 34.1934 32.147C33.9674 31.5212 33.4626 30.9024 32.4805 30.5552C30.3421 29.7994 29.1685 29.2275 28.3486 28.5845C27.4884 27.9096 27.0621 26.7056 27.3066 25.4077C27.573 23.9946 28.5504 22.8894 29.8379 22.5015C29.9307 22.4735 30.024 22.4488 30.1191 22.4263L30.5039 22.3355V21.063C30.5041 20.6908 30.8065 20.3892 31.1787 20.3892C31.5508 20.3893 31.8523 20.6909 31.8525 21.063V22.3267L32.2471 22.4116C33.7711 22.7425 34.8002 23.6865 34.8467 23.73H34.8477C35.0854 23.9527 35.1253 24.3075 34.9609 24.5747L34.8779 24.6831C34.6244 24.9534 34.2007 24.9685 33.9287 24.7173L33.9248 24.7144L33.8174 24.6216C33.6455 24.4823 33.2879 24.2206 32.8027 24.0034C32.1542 23.7132 31.2393 23.4876 30.2266 23.7925C29.2305 24.0925 28.7596 24.9799 28.6318 25.6577C28.504 26.3366 28.646 27.1045 29.1807 27.5239C30.0902 28.2374 31.6306 28.8254 32.9297 29.2847C34.938 29.9946 35.9848 31.7499 35.6426 33.7857C35.3735 35.3861 34.1396 37.004 32.2373 37.4546L31.8525 37.5454V38.937C31.8524 39.3092 31.5509 39.6107 31.1787 39.6109C30.8064 39.6109 30.504 39.3093 30.5039 38.937V37.5855Z" fill="#080C15" stroke="black"/>
<path d="M31.2667 45.7002C39.9238 45.7002 46.9669 38.6571 46.9669 30C46.9669 21.3429 39.9238 14.2998 31.2667 14.2998C22.6096 14.2998 15.5664 21.3429 15.5664 30C15.5664 38.6571 22.6096 45.7002 31.2667 45.7002ZM31.2667 16.6481C38.6289 16.6481 44.6186 22.6378 44.6186 30C44.6186 37.3622 38.6289 43.3519 31.2667 43.3519C23.9044 43.3519 17.9148 37.3622 17.9148 30C17.9148 22.6378 23.9044 16.6481 31.2667 16.6481Z" fill="#080C15"/>
<path d="M51.8713 9.94465C51.4206 9.47836 50.6773 9.46547 50.211 9.91629C49.7447 10.3669 49.732 11.1102 50.1827 11.5766C55.0032 16.5649 57.6558 23.1137 57.6516 30.0165C57.6427 44.6426 45.7362 56.5417 31.1101 56.5417C24.9828 56.5417 19.0007 54.3949 14.266 50.4968C13.8345 50.1416 13.5868 49.615 13.5862 49.0519C13.5856 48.4789 13.8383 47.9412 14.2794 47.5764C14.9784 46.9984 16.0044 47.004 16.7191 47.5898C20.768 50.9082 25.8788 52.7357 31.1101 52.7357C37.1845 52.7357 42.8984 50.3612 47.1994 46.0496C51.5002 41.7382 53.8605 36.0183 53.8455 29.9433C53.8148 17.4784 43.6492 7.305 31.1848 7.26457C25.1116 7.24231 19.3967 9.59731 15.0831 13.8882C10.7713 18.1775 8.38881 23.8802 8.37451 29.9459C8.37381 30.2577 8.49709 30.5571 8.7174 30.7779C8.93771 30.9987 9.23678 31.1228 9.54861 31.1228H9.90826L6.55799 36.9255L3.20771 31.1228H3.39416C4.04174 31.1228 4.56709 30.5984 4.56838 29.9508C4.5951 15.3428 16.5016 3.45844 31.1098 3.45832C34.8917 3.45832 38.5484 4.24406 41.9785 5.79375C42.5696 6.06059 43.265 5.79809 43.5319 5.20711C43.7989 4.61613 43.5363 3.92063 42.9453 3.65367C39.2094 1.96582 35.2273 1.11 31.1098 1.11C15.6012 1.11 2.89014 13.4146 2.24561 28.7745H1.17416C0.754629 28.7745 0.36709 28.9983 0.157324 29.3616C-0.0524414 29.7248 -0.0524414 30.1724 0.157324 30.5358L4.52443 38.0998C4.94889 38.835 5.7092 39.274 6.55822 39.274C7.40713 39.274 8.16744 38.835 8.59189 38.0998L12.959 30.5358C13.1688 30.1725 13.1688 29.725 12.959 29.3616C12.7492 28.9983 12.3617 28.7745 11.9422 28.7745H10.7589C11.0544 23.7785 13.1525 19.1211 16.7392 15.553C20.5919 11.7205 25.6924 9.61277 31.1096 9.61277C31.1319 9.61277 31.1549 9.61277 31.1772 9.61289C42.3541 9.6491 51.4696 18.7717 51.4972 29.9488C51.5105 35.3954 49.3939 40.5245 45.5368 44.391C41.6797 48.2577 36.5561 50.3872 31.1099 50.3872C26.42 50.3872 21.8377 48.7487 18.2075 45.7734C16.6264 44.4777 14.345 44.4748 12.7828 45.7664C11.7996 46.5795 11.2363 47.7777 11.2378 49.0542C11.239 50.3208 11.7987 51.5073 12.7733 52.3097C17.9274 56.553 24.4395 58.89 31.1099 58.89C47.0302 58.89 59.9902 45.9381 59.9998 30.0179C60.0045 22.5023 57.1177 15.3735 51.8713 9.94465Z" fill="#080C15"/>
<path d="M47.1709 8.50006C47.8149 8.4321 48.2818 7.85497 48.2139 7.211C48.1459 6.56703 47.5688 6.10007 46.9248 6.16803C46.2808 6.23599 45.8139 6.81312 45.8818 7.45709C45.9498 8.10107 46.5269 8.56802 47.1709 8.50006Z" fill="#080C15"/>
</svg>
