<svg width="60" height="60" viewBox="0 0 60 60" fill="none" xmlns="http://www.w3.org/2000/svg">
<path d="M55.7998 33.6255L54.246 27.4105C54.6708 27.3203 54.9895 26.9434 54.9895 26.4919V25.4898C54.9895 23.3141 53.2194 21.5441 51.0438 21.5441H43.9666V19.4773C43.9666 18.4066 43.0957 17.5357 42.0251 17.5357H28.8656L36.8625 14.337C37.3443 14.1443 37.5785 13.5975 37.3859 13.1157C37.1932 12.6341 36.6468 12.3996 36.1646 12.5924L29.6169 15.2114C31.6121 13.9313 33.5862 12.5223 34.3377 11.537C35.8008 9.61875 35.4302 6.86789 33.512 5.40481C31.5937 3.94161 28.8429 4.31227 27.3798 6.23051C26.3108 7.63231 24.9003 11.5711 23.9875 14.3467C23.0746 11.5713 21.6641 7.63231 20.5951 6.23051C19.1321 4.31227 16.3812 3.94184 14.4629 5.40481C12.5447 6.86778 12.1743 9.61864 13.6372 11.537C14.3887 12.5224 16.3627 13.9313 18.358 15.2114L11.8103 12.5924C11.3283 12.3994 10.7817 12.634 10.5891 13.1157C10.3963 13.5975 10.6307 14.1443 11.1124 14.337L19.1093 17.5357H5.94984C4.87922 17.5357 4.00828 18.4066 4.00828 19.4773V36.5128C4.00828 37.0316 4.42887 37.4523 4.94777 37.4523C5.46656 37.4523 5.88727 37.0317 5.88727 36.5128V19.4773C5.88727 19.4427 5.91527 19.4147 5.94984 19.4147H42.025C42.0595 19.4147 42.0875 19.4427 42.0875 19.4773V36.5131C42.0875 37.0318 42.5081 37.4525 43.027 37.4525C43.5458 37.4525 43.9665 37.032 43.9665 36.5131V35.448H55.0485C55.0495 35.448 55.0504 35.4483 55.0514 35.4483C55.0525 35.4483 55.0534 35.4482 55.0545 35.4482C56.418 35.4492 57.5759 36.3443 57.9734 37.5776H55.0521C54.5333 37.5776 54.1126 37.9982 54.1126 38.5171V40.5212C54.1126 42.1444 55.4331 43.4648 57.0562 43.4648H58.121V47.5984H55.6645C54.8576 45.2685 52.6426 43.59 50.0416 43.59C47.4407 43.59 45.2256 45.2684 44.4187 47.5984H43.9664V40.5211C43.9664 40.0023 43.5458 39.5816 43.0269 39.5816C42.5081 39.5816 42.0874 40.0022 42.0874 40.5211V47.5983H22.5957C21.7888 45.2684 19.5738 43.5899 16.9729 43.5899C14.3719 43.5899 12.1568 45.2682 11.35 47.5983H5.94984C5.91527 47.5983 5.88727 47.5703 5.88727 47.5357V45.4689H9.95824C10.477 45.4689 10.8977 45.0483 10.8977 44.5294C10.8977 44.0105 10.4771 43.5899 9.95824 43.5899H0.939492C0.420703 43.5899 0 44.0105 0 44.5294C0 45.0483 0.420586 45.4689 0.939492 45.4689H4.0084V47.5357C4.0084 48.6063 4.87934 49.4773 5.94996 49.4773H11.0246C11.0244 49.4981 11.023 49.5189 11.023 49.5398C11.023 52.8205 13.6922 55.4897 16.9729 55.4897C20.2535 55.4897 22.9227 52.8205 22.9227 49.5398C22.9227 49.5187 22.9213 49.4981 22.9211 49.4773H44.0933C44.0931 49.4981 44.0917 49.5189 44.0917 49.5398C44.0917 52.8205 46.7609 55.4897 50.0415 55.4897C53.3222 55.4897 55.9914 52.8205 55.9914 49.5398C55.9914 49.5187 55.99 49.4981 55.9897 49.4773H59.0604C59.5792 49.4773 59.9999 49.0567 59.9999 48.5378V38.517C60 36.0427 58.1746 33.987 55.7998 33.6255ZM20.2617 14.1866C16.5559 11.8838 15.4567 10.8243 15.1312 10.3975C14.2965 9.30305 14.5079 7.73356 15.6025 6.89883C16.0536 6.55477 16.5854 6.38848 17.1134 6.38848C17.8659 6.38848 18.6105 6.72668 19.1012 7.37004C20.01 8.56161 21.4332 12.5721 22.3728 15.4621C21.7387 15.0887 21.0098 14.6517 20.2617 14.1866ZM25.6023 15.462C26.5419 12.5721 27.9652 8.56172 28.8738 7.36993C29.7086 6.27551 31.278 6.06422 32.3725 6.89883C33.467 7.73356 33.6783 9.30305 32.8437 10.3975C32.5182 10.8241 31.419 11.8838 27.7134 14.1865C26.9654 14.6515 26.2365 15.0886 25.6023 15.462ZM43.9666 23.4229H51.0438C52.1835 23.4229 53.1107 24.35 53.1107 25.4897V25.5523H43.9666V23.4229ZM43.9666 33.5691V27.4313H52.3145L53.8489 33.5691H43.9666ZM16.9729 53.6108C14.7281 53.6108 12.9019 51.7846 12.9019 49.5398C12.9019 47.2951 14.7281 45.4689 16.9729 45.4689C19.2176 45.4689 21.0438 47.2951 21.0438 49.5398C21.0438 51.7846 19.2176 53.6108 16.9729 53.6108ZM50.0418 53.6108C47.797 53.6108 45.9708 51.7846 45.9708 49.5398C45.9708 47.2951 47.797 45.4689 50.0418 45.4689C52.2865 45.4689 54.1127 47.2951 54.1127 49.5398C54.1127 51.7846 52.2865 53.6108 50.0418 53.6108ZM58.1211 41.5857H57.0564C56.4693 41.5857 55.9916 41.1081 55.9916 40.521V39.4562H58.121V41.5857H58.1211Z" fill="#080C15"/>
<path d="M16.9728 47.5983C15.9022 47.5983 15.0312 48.4692 15.0312 49.5398C15.0312 50.6105 15.9022 51.4814 16.9728 51.4814C18.0434 51.4814 18.9144 50.6105 18.9144 49.5398C18.9144 48.4692 18.0434 47.5983 16.9728 47.5983Z" fill="#080C15"/>
<path d="M50.0422 47.5983C48.9715 47.5983 48.1006 48.4692 48.1006 49.5398C48.1006 50.6105 48.9715 51.4814 50.0422 51.4814C51.1128 51.4814 51.9837 50.6105 51.9837 49.5398C51.9837 48.4692 51.1128 47.5983 50.0422 47.5983Z" fill="#080C15"/>
<path d="M39.0185 43.5899H24.9893C24.4705 43.5899 24.0498 44.0105 24.0498 44.5294C24.0498 45.0483 24.4704 45.4689 24.9893 45.4689H39.0185C39.5373 45.4689 39.958 45.0483 39.958 44.5294C39.958 44.0105 39.5374 43.5899 39.0185 43.5899Z" fill="#080C15"/>
<path d="M14.9685 39.5816H2.9434C2.42461 39.5816 2.00391 40.0022 2.00391 40.5211C2.00391 41.04 2.42449 41.4606 2.9434 41.4606H14.9685C15.4873 41.4606 15.908 41.04 15.908 40.5211C15.908 40.0022 15.4873 39.5816 14.9685 39.5816Z" fill="#080C15"/>
<path d="M14.9684 25.5523H10.96C10.4412 25.5523 10.0205 25.9728 10.0205 26.4918V34.5084C10.0205 35.0272 10.4411 35.4479 10.96 35.4479C11.4789 35.4479 11.8995 35.0273 11.8995 34.5084V31.4395H13.9663C14.4851 31.4395 14.9058 31.0189 14.9058 30.5C14.9058 29.9811 14.4852 29.5605 13.9663 29.5605H11.8995V27.4312H14.9684C15.4872 27.4312 15.9079 27.0107 15.9079 26.4918C15.9078 25.973 15.4872 25.5523 14.9684 25.5523Z" fill="#080C15"/>
<path d="M22.3617 31.88C23.3019 31.2642 23.9246 30.2023 23.9246 28.997C23.9246 27.0975 22.3794 25.5523 20.4799 25.5523H17.9746C17.4559 25.5523 17.0352 25.9728 17.0352 26.4918V34.5084C17.0352 35.0272 17.4557 35.4479 17.9746 35.4479C18.4936 35.4479 18.9141 35.0273 18.9141 34.5084V32.4416H20.4781L22.2034 35.0294C22.3844 35.301 22.6822 35.4479 22.9858 35.4479C23.165 35.4479 23.3459 35.3968 23.506 35.29C23.9379 35.0023 24.0545 34.4189 23.7665 33.9873L22.3617 31.88ZM20.4799 30.5627H18.9141V27.4312H20.4799C21.3433 27.4312 22.0456 28.1335 22.0456 28.997C22.0456 29.8604 21.3433 30.5627 20.4799 30.5627Z" fill="#080C15"/>
<path d="M29.9996 33.5691H26.9307V31.4365C26.9515 31.4379 26.9722 31.4396 26.9933 31.4396H28.9975C29.5162 31.4396 29.937 31.0191 29.937 30.5002C29.937 29.9812 29.5164 29.5607 28.9975 29.5607H26.9933C26.9721 29.5607 26.9515 29.5624 26.9307 29.5638V27.4312H29.9996C30.5184 27.4312 30.9391 27.0107 30.9391 26.4918C30.9391 25.973 30.5186 25.5523 29.9996 25.5523H25.9912C25.4725 25.5523 25.0518 25.9728 25.0518 26.4918V34.5084C25.0518 35.0272 25.4723 35.4479 25.9912 35.4479H29.9996C30.5184 35.4479 30.9391 35.0273 30.9391 34.5084C30.9391 33.9895 30.5184 33.5691 29.9996 33.5691Z" fill="#080C15"/>
<path d="M37.0143 33.5691H33.9454V31.4396H35.0102C35.5289 31.4396 35.9497 31.0191 35.9497 30.5002C35.9497 29.9812 35.5291 29.5607 35.0102 29.5607H33.9454V27.4312H37.0143C37.5331 27.4312 37.9538 27.0107 37.9538 26.4918C37.9538 25.973 37.5332 25.5523 37.0143 25.5523H33.0059C32.4871 25.5523 32.0664 25.9728 32.0664 26.4918V34.5084C32.0664 35.0272 32.487 35.4479 33.0059 35.4479H37.0143C37.5331 35.4479 37.9538 35.0273 37.9538 34.5084C37.9538 33.9895 37.5331 33.5691 37.0143 33.5691Z" fill="#080C15"/>
</svg>
