<svg width="60" height="60" viewBox="0 0 60 60" fill="none" xmlns="http://www.w3.org/2000/svg">
<path d="M58.5323 38.4656C57.6627 37.6612 56.5432 37.2266 55.4029 37.1592C56.3094 34.7487 56.7698 32.2107 56.7698 29.5864C56.7698 24.9499 55.3253 20.5323 52.5922 16.8114C52.2059 16.2852 51.4661 16.172 50.9401 16.5585C50.4141 16.945 50.3009 17.6845 50.6872 18.2106C53.1203 21.523 54.4062 25.4567 54.4062 29.5864C54.4062 32.4646 53.7861 35.2253 52.566 37.7995C52.239 37.9828 51.9302 38.2041 51.648 38.465L43.6545 45.8471C43.5357 45.9569 42.9943 46.3135 40.998 46.3135C40.9855 46.3135 40.9729 46.3135 40.9602 46.3135C37.8222 46.305 33.0464 46.2966 29.4388 46.29L27.7372 46.2871C26.8215 46.2871 26.0766 45.6398 26.0766 44.8445C26.0766 44.0607 26.8371 43.3985 27.7372 43.3985H35.3118C37.7285 43.3985 39.6947 41.5421 39.6947 39.2603C39.6947 39.0476 39.6775 38.8386 39.6445 38.6345C41.5277 37.788 42.7929 35.9075 42.7929 33.7556C42.7929 30.8052 40.4081 28.4047 37.4768 28.4047H32.9175C31.2711 28.4047 29.9319 27.0632 29.9319 25.414C29.9319 23.7668 31.2712 22.4266 32.9175 22.4266H35.1694H35.1723H41.6111C42.2638 22.4266 42.7929 21.8975 42.7929 21.2448C42.7929 20.5922 42.2638 20.0631 41.6111 20.0631H36.3571L36.3641 17.2182C36.3657 16.5654 35.8379 16.0351 35.1852 16.0335C35.1843 16.0335 35.1832 16.0335 35.1823 16.0335C34.5309 16.0335 34.0022 16.5607 34.0004 17.2123L33.9934 20.0631H32.9176C29.968 20.0631 27.5684 22.4634 27.5684 25.414C27.5684 28.3664 29.9681 30.7683 32.9176 30.7683H37.4769C39.0773 30.7683 40.4293 32.1363 40.4293 33.7556C40.4293 34.9668 39.6703 36.053 38.5845 36.5114C37.7811 35.6597 36.612 35.1218 35.3119 35.1218H16.7652C16.2278 33.3293 15.9553 31.4715 15.9553 29.5866C15.9553 28.087 16.1268 26.6088 16.4645 25.1728C16.6061 25.2657 16.7487 25.3553 16.8925 25.4413C17.543 25.8309 18.0465 26.0258 18.5508 26.0258C19.0547 26.0258 19.5591 25.8312 20.2114 25.4419C22.5473 24.0458 24.5964 21.7264 26.3018 18.548C27.5442 16.231 28.3151 13.8347 28.5762 11.5201C30.6878 10.745 32.9065 10.3513 35.1825 10.3513C37.8989 10.3513 40.5225 10.906 42.9804 12C43.1366 12.0695 43.2997 12.1024 43.4603 12.1024C43.9128 12.1024 44.3447 11.841 44.5406 11.4008C44.8059 10.8046 44.5378 10.106 43.9414 9.84058C41.1791 8.61116 38.2321 7.98784 35.1824 7.98784C32.9386 7.98784 30.7438 8.32909 28.6355 9.00163C28.4687 7.71738 27.8052 7.2907 26.8057 6.75281L19.1136 2.60179C18.7634 2.41277 18.3414 2.41277 17.9911 2.60179L10.2947 6.7548C9.14484 7.37366 8.43949 7.84429 8.42461 9.64429C8.4 12.5258 9.22137 15.6047 10.7998 18.5481C11.8818 20.5646 13.1036 22.2343 14.4498 23.5435C13.8805 25.4944 13.5915 27.5234 13.5915 29.5864C13.5915 31.5683 13.8596 33.5239 14.3897 35.4178C13.3766 35.6798 12.4173 36.1103 11.559 36.6859C11.1799 34.8595 9.47508 33.4773 7.43461 33.4773H4.20363C1.88578 33.4773 0 35.2607 0 37.4529V53.2158C0 55.4061 1.88578 57.1881 4.20363 57.1881H7.43461C9.75246 57.1881 11.6382 55.4061 11.6382 53.2158V53.1907L19.1279 56.5498C19.153 56.561 19.1786 56.5713 19.2043 56.5807C21.5252 57.4329 24.4877 57.4909 32.7171 57.5334C38.9476 57.5401 39.7614 57.5401 40.9437 57.5401C43.9191 57.5401 45.4406 57.2705 47.1361 55.6021C50.6634 52.3413 54.191 49.0834 57.7211 45.8231L58.5311 45.075C59.4783 44.2012 59.9999 43.0273 59.9999 41.7697C60 40.5123 59.4784 39.3383 58.5323 38.4656ZM9.27469 53.2158C9.27469 54.1029 8.44934 54.8245 7.43473 54.8245H4.20363C3.18902 54.8245 2.36367 54.1029 2.36367 53.2158V37.4529C2.36367 36.579 3.20625 35.8409 4.20363 35.8409H7.43461C8.43199 35.8409 9.27457 36.5791 9.27457 37.4529L9.27469 53.2158ZM12.8828 17.4307C11.4913 14.836 10.767 12.1505 10.7883 9.66398C10.7907 9.36234 10.8131 9.22898 10.8253 9.17812C10.9199 9.10253 11.1817 8.96156 11.415 8.83593L18.5524 4.98445L25.6563 8.818L25.6855 8.8337C25.9191 8.95945 26.1812 9.10054 26.2762 9.17648C26.2884 9.22769 26.3107 9.36199 26.3132 9.66585C26.3374 12.1453 25.6131 14.8303 24.2187 17.4305C22.7186 20.2264 20.9623 22.2391 18.9994 23.4124C18.7377 23.5686 18.611 23.629 18.5514 23.6522C18.4921 23.6289 18.3662 23.5686 18.107 23.4135C18.1066 23.4132 18.1064 23.413 18.1061 23.4129C16.1668 22.2539 14.3606 20.1852 12.8828 17.4307ZM56.928 43.3384L56.1176 44.0869C52.5826 47.3518 49.0502 50.6141 45.5179 53.8794C45.5081 53.8883 45.4986 53.8973 45.4894 53.9066C44.4936 54.8905 43.7763 55.1766 40.9439 55.1766C39.7618 55.1766 38.9484 55.1766 32.7247 55.1699C25.1926 55.1309 22.0307 55.0864 20.0562 54.3753L11.6385 50.6V39.7266C12.8869 38.3168 14.7546 37.4852 16.7128 37.4852H35.312C36.0864 37.4852 36.7594 37.8709 37.098 38.4347C37.1045 38.4465 37.1106 38.4585 37.1174 38.47C37.253 38.7083 37.3312 38.9761 37.3312 39.2601C37.3312 40.2388 36.4254 41.0348 35.312 41.0348H27.7375C25.5184 41.0348 23.7131 42.7438 23.7131 44.8444C23.7131 46.9431 25.5185 48.6505 27.7354 48.6505L29.4348 48.6535C33.0416 48.66 37.8165 48.6685 40.9546 48.677C40.969 48.6771 40.983 48.6771 40.9973 48.6771C43.0972 48.677 44.4525 48.3287 45.259 47.5827L53.2526 40.2007C54.2486 39.2795 55.9315 39.2794 56.9287 40.2018C57.3852 40.6229 57.6366 41.1798 57.6366 41.7697C57.6363 42.3599 57.385 42.9168 56.928 43.3384Z" fill="#080C15"/>
<path d="M48.0098 14.8889C48.3123 14.8889 48.6147 14.7736 48.8455 14.5429C49.3071 14.0813 49.3071 13.333 48.8455 12.8714L48.8422 12.8681C48.3807 12.4069 47.634 12.4083 47.1725 12.8699C46.7109 13.3314 46.7126 14.0813 47.1741 14.543C47.4049 14.7736 47.7073 14.8889 48.0098 14.8889Z" fill="#080C15"/>
<path d="M18.0338 17.0251C18.3416 17.0251 18.6489 16.9056 18.8802 16.6683L23.0511 12.3895C23.5066 11.9221 23.4971 11.1738 23.0296 10.7183C22.5623 10.2627 21.814 10.2722 21.3584 10.7397L17.9962 14.1891L16.8293 13.0969C16.3529 12.6509 15.6051 12.6754 15.1588 13.1522C14.7128 13.6287 14.7375 14.3766 15.214 14.8226L17.2264 16.7063C17.4541 16.9193 17.7442 17.0251 18.0338 17.0251Z" fill="#080C15"/>
</svg>
