<svg width="60" height="60" viewBox="0 0 60 60" fill="none" xmlns="http://www.w3.org/2000/svg">
<path d="M49.5448 18.9625H45.1819V14.3142C45.1819 11.6505 44.1797 9.11308 42.3599 7.16953C42.0216 6.80812 41.4544 6.78961 41.0932 7.12793C40.7319 7.46625 40.7133 8.03332 41.0516 8.39449C42.5592 10.0048 43.3896 12.1071 43.3896 14.3142V18.9625H25.1538C19.3888 18.9625 14.6986 23.6528 14.6986 29.4178V32.6238H13.2949C12.7365 32.6238 12.2114 32.8413 11.8164 33.2363L7.05996 37.9927V33.2079C7.05996 32.4749 6.6675 31.7861 6.03551 31.4104C3.41824 29.8542 1.79227 26.9998 1.79227 23.961V14.3142C1.79227 9.53742 5.67844 5.65125 10.4552 5.65125H34.7266C35.8463 5.65125 36.9353 5.86136 37.9635 6.27597C38.4225 6.46078 38.9447 6.23882 39.1297 5.77992C39.3148 5.32089 39.0927 4.79871 38.6337 4.61367C37.3916 4.11281 36.077 3.85898 34.7266 3.85898H10.4552C4.6902 3.85898 0 8.54918 0 14.3142V23.961C0 27.6287 1.96172 31.0735 5.11957 32.9509C5.21098 33.0053 5.2677 33.1037 5.2677 33.208V38.4255C5.2677 39.0802 5.65852 39.6651 6.26344 39.9157C6.66715 40.1098 7.49145 40.0818 8.02137 39.5662L13.0836 34.5038C13.1401 34.4473 13.2151 34.4162 13.2949 34.4162H14.6986V39.0645C14.6986 40.4757 14.9752 41.845 15.5205 43.1345C15.7133 43.5903 16.2391 43.8032 16.695 43.6108C17.1509 43.418 17.364 42.8922 17.1714 42.4363C16.72 41.369 16.491 40.2346 16.491 39.0646V29.4179C16.491 24.641 20.3771 20.7549 25.1539 20.7549H49.5448C54.3216 20.7549 58.2077 24.641 58.2077 29.4179V39.0646C58.2077 42.1152 56.6479 44.8841 54.0349 46.4716C53.4191 46.8457 53.0365 47.5286 53.0365 48.2535V54.0984L47.2781 48.3399C46.8832 47.945 46.3581 47.7275 45.7996 47.7275H25.1538C22.9799 47.7275 20.9011 46.9189 19.3002 45.4507C18.9355 45.1164 18.3687 45.1408 18.034 45.5055C17.6994 45.8703 17.7239 46.4371 18.0887 46.7717C20.021 48.5439 22.53 49.5198 25.1537 49.5198H45.7993C45.878 49.5198 45.955 49.5517 46.0105 49.6074L52.0748 55.6717C52.5431 56.0316 53.0009 56.3098 53.8327 56.0213C54.4376 55.7706 54.8284 55.1857 54.8284 54.531V48.2534C54.8284 48.1504 54.8809 48.0544 54.9653 48.0032C58.118 46.088 60 42.7465 60 39.0645V29.4178C60 23.6528 55.3098 18.9625 49.5448 18.9625Z" fill="#080C15"/>
<path d="M34.8195 40.3343C34.294 39.5918 33.3367 39.094 32.2449 39.094C30.5894 39.094 29.2426 40.2383 29.2426 41.6449C29.2426 43.0514 30.5895 44.1957 32.2449 44.1957C33.6975 44.1957 34.9122 43.3146 35.1882 42.1483C36.51 41.5916 37.5507 40.4822 38.0023 39.0786C39.311 38.7806 40.2911 37.6083 40.2911 36.2105V32.979C40.2911 31.6296 39.3777 30.4903 38.1369 30.1448C37.8449 28.3449 36.9604 26.6934 35.6044 25.4453C34.0914 24.0525 32.125 23.2855 30.0674 23.2855C26.0185 23.2855 22.6319 26.2019 21.9971 30.1449C20.7568 30.4906 19.8438 31.6298 19.8438 32.9789V36.2103C19.8438 37.8327 21.1636 39.1526 22.786 39.1526C24.4083 39.1526 25.7282 37.8327 25.7282 36.2103V32.9789C25.7282 31.7139 24.9256 30.6328 23.8029 30.218C24.3839 27.249 26.9793 25.0778 30.0674 25.0778C33.1164 25.0778 35.7444 27.287 36.3296 30.2189C35.2081 30.6343 34.4066 31.7147 34.4066 32.9789V36.2103C34.4066 37.4061 35.1241 38.4369 36.1508 38.8966C35.866 39.5088 35.3973 40.0089 34.8195 40.3343ZM32.2449 42.4036C31.5318 42.4036 31.0349 42.0039 31.0349 41.645C31.0349 41.2862 31.5318 40.8864 32.2449 40.8864C32.958 40.8864 33.455 41.2862 33.455 41.645C33.455 42.0039 32.9578 42.4036 32.2449 42.4036ZM23.9359 36.2106C23.9359 36.8447 23.4201 37.3605 22.786 37.3605C22.1519 37.3605 21.636 36.8447 21.636 36.2106V32.9791C21.636 32.345 22.1519 31.8292 22.786 31.8292C23.4201 31.8292 23.9359 32.345 23.9359 32.9791V36.2106ZM36.1989 32.9791C36.1989 32.345 36.7148 31.8292 37.3489 31.8292C37.983 31.8292 38.4988 32.345 38.4988 32.9791V36.2106C38.4988 36.8447 37.983 37.3605 37.3489 37.3605C36.7148 37.3605 36.1989 36.8447 36.1989 36.2106V32.9791Z" fill="#080C15"/>
<path d="M42.6198 28.3644H49.7578C50.2527 28.3644 50.6539 27.9633 50.6539 27.4683C50.6539 26.9733 50.2527 26.5721 49.7578 26.5721H42.6198C42.1249 26.5721 41.7236 26.9733 41.7236 27.4683C41.7236 27.9633 42.1249 28.3644 42.6198 28.3644Z" fill="#080C15"/>
<path d="M42.6198 32.3761H48.1237C48.6186 32.3761 49.0198 31.975 49.0198 31.48C49.0198 30.985 48.6186 30.5838 48.1237 30.5838H42.6198C42.1249 30.5838 41.7236 30.985 41.7236 31.48C41.7236 31.975 42.1249 32.3761 42.6198 32.3761Z" fill="#080C15"/>
<path d="M8.81652 16.9165C9.55441 16.9165 10.1526 16.3183 10.1526 15.5804C10.1526 14.8425 9.55441 14.2444 8.81652 14.2444C8.07864 14.2444 7.48047 14.8425 7.48047 15.5804C7.48047 16.3183 8.07864 16.9165 8.81652 16.9165Z" fill="#080C15"/>
<path d="M12.8624 16.9165C13.6003 16.9165 14.1985 16.3183 14.1985 15.5804C14.1985 14.8425 13.6003 14.2444 12.8624 14.2444C12.1245 14.2444 11.5264 14.8425 11.5264 15.5804C11.5264 16.3183 12.1245 16.9165 12.8624 16.9165Z" fill="#080C15"/>
<path d="M16.8859 16.9165C17.6237 16.9165 18.2219 16.3183 18.2219 15.5804C18.2219 14.8425 17.6237 14.2444 16.8859 14.2444C16.148 14.2444 15.5498 14.8425 15.5498 15.5804C15.5498 16.3183 16.148 16.9165 16.8859 16.9165Z" fill="#080C15"/>
</svg>
